REM DIRINDEX 1\2,1\3,1\4,1\5\6,1\5\7,1\8
REM DIRNAME cjc115,folder01,folder02,folder03,folder04,folder05,folder06,folder07
TITLE ""
FILE "151 【151】Unit9 (1705 pass off_1716 stem from ～).mp3" MP3
  TRACK 01 AUDIO
    TITLE "0:"
    INDEX 01 00:00:00
  TRACK 02 AUDIO
    TITLE "2:cjc115_5920"
    INDEX 01 00:00:07
  TRACK 03 AUDIO
    TITLE "0:"
    INDEX 01 00:01:38
  TRACK 04 AUDIO
    TITLE "3:cjc115_5921"
    INDEX 01 00:01:44
  TRACK 05 AUDIO
    TITLE "0:"
    INDEX 01 00:03:43
  TRACK 06 AUDIO
    TITLE "4:cjc115_5922"
    INDEX 01 00:03:53
  TRACK 07 AUDIO
    TITLE "0:"
    INDEX 01 00:09:14
  TRACK 08 AUDIO
    TITLE "2:cjc115_5923"
    INDEX 01 00:10:23
  TRACK 09 AUDIO
    TITLE "0:"
    INDEX 01 00:11:40
  TRACK 10 AUDIO
    TITLE "3:cjc115_5924"
    INDEX 01 00:11:50
  TRACK 11 AUDIO
    TITLE "0:"
    INDEX 01 00:14:06
  TRACK 12 AUDIO
    TITLE "4:cjc115_5925"
    INDEX 01 00:14:07
  TRACK 13 AUDIO
    TITLE "0:"
    INDEX 01 00:18:31
  TRACK 14 AUDIO
    TITLE "2:cjc115_5926"
    INDEX 01 00:19:32
  TRACK 15 AUDIO
    TITLE "0:"
    INDEX 01 00:20:59
  TRACK 16 AUDIO
    TITLE "3:cjc115_5927"
    INDEX 01 00:20:67
  TRACK 17 AUDIO
    TITLE "0:"
    INDEX 01 00:22:21
  TRACK 18 AUDIO
    TITLE "4:cjc115_5928"
    INDEX 01 00:22:30
  TRACK 19 AUDIO
    TITLE "0:"
    INDEX 01 00:25:39
  TRACK 20 AUDIO
    TITLE "2:cjc115_5929"
    INDEX 01 00:26:48
  TRACK 21 AUDIO
    TITLE "0:"
    INDEX 01 00:27:57
  TRACK 22 AUDIO
    TITLE "3:cjc115_5930"
    INDEX 01 00:27:71
  TRACK 23 AUDIO
    TITLE "0:"
    INDEX 01 00:30:67
  TRACK 24 AUDIO
    TITLE "4:cjc115_5931"
    INDEX 01 00:30:71
  TRACK 25 AUDIO
    TITLE "0:"
    INDEX 01 00:34:34
  TRACK 26 AUDIO
    TITLE "2:cjc115_5932"
    INDEX 01 00:35:43
  TRACK 27 AUDIO
    TITLE "0:"
    INDEX 01 00:36:52
  TRACK 28 AUDIO
    TITLE "3:cjc115_5933"
    INDEX 01 00:36:70
  TRACK 29 AUDIO
    TITLE "0:"
    INDEX 01 00:39:64
  TRACK 30 AUDIO
    TITLE "4:cjc115_5934"
    INDEX 01 00:39:66
  TRACK 31 AUDIO
    TITLE "0:"
    INDEX 01 00:43:56
  TRACK 32 AUDIO
    TITLE "2:cjc115_5935"
    INDEX 01 00:44:65
  TRACK 33 AUDIO
    TITLE "0:"
    INDEX 01 00:46:11
  TRACK 34 AUDIO
    TITLE "3:cjc115_5936"
    INDEX 01 00:46:19
  TRACK 35 AUDIO
    TITLE "0:"
    INDEX 01 00:48:48
  TRACK 36 AUDIO
    TITLE "4:cjc115_5937"
    INDEX 01 00:48:49
  TRACK 37 AUDIO
    TITLE "0:"
    INDEX 01 00:51:67
  TRACK 38 AUDIO
    TITLE "2:cjc115_5938"
    INDEX 01 00:52:73
  TRACK 39 AUDIO
    TITLE "0:"
    INDEX 01 00:54:52
  TRACK 40 AUDIO
    TITLE "3:cjc115_5939"
    INDEX 01 00:54:60
  TRACK 41 AUDIO
    TITLE "0:"
    INDEX 01 00:57:74
  TRACK 42 AUDIO
    TITLE "4:cjc115_5940"
    INDEX 01 00:58:03
  TRACK 43 AUDIO
    TITLE "0:"
    INDEX 01 01:01:48
  TRACK 44 AUDIO
    TITLE "2:cjc115_5941"
    INDEX 01 01:02:57
  TRACK 45 AUDIO
    TITLE "0:"
    INDEX 01 01:04:09
  TRACK 46 AUDIO
    TITLE "3:cjc115_5942"
    INDEX 01 01:04:17
  TRACK 47 AUDIO
    TITLE "0:"
    INDEX 01 01:06:00
  TRACK 48 AUDIO
    TITLE "4:cjc115_5943"
    INDEX 01 01:06:08
  TRACK 49 AUDIO
    TITLE "0:"
    INDEX 01 01:09:01
  TRACK 50 AUDIO
    TITLE "2:cjc115_5944"
    INDEX 01 01:10:10
  TRACK 51 AUDIO
    TITLE "0:"
    INDEX 01 01:11:25
  TRACK 52 AUDIO
    TITLE "3:cjc115_5945"
    INDEX 01 01:11:31
  TRACK 53 AUDIO
    TITLE "0:"
    INDEX 01 01:13:51
  TRACK 54 AUDIO
    TITLE "4:cjc115_5946"
    INDEX 01 01:13:57
  TRACK 55 AUDIO
    TITLE "0:"
    INDEX 01 01:16:42
  TRACK 56 AUDIO
    TITLE "2:cjc115_5947"
    INDEX 01 01:17:49
  TRACK 57 AUDIO
    TITLE "0:"
    INDEX 01 01:19:34
  TRACK 58 AUDIO
    TITLE "3:cjc115_5948"
    INDEX 01 01:19:42
  TRACK 59 AUDIO
    TITLE "0:"
    INDEX 01 01:21:47
  TRACK 60 AUDIO
    TITLE "4:cjc115_5949"
    INDEX 01 01:21:53
  TRACK 61 AUDIO
    TITLE "0:"
    INDEX 01 01:24:55
  TRACK 62 AUDIO
    TITLE "2:cjc115_5950"
    INDEX 01 01:25:64
  TRACK 63 AUDIO
    TITLE "0:"
    INDEX 01 01:26:72
  TRACK 64 AUDIO
    TITLE "3:cjc115_5951"
    INDEX 01 01:27:20
  TRACK 65 AUDIO
    TITLE "0:"
    INDEX 01 01:30:03
  TRACK 66 AUDIO
    TITLE "4:cjc115_5952"
    INDEX 01 01:30:13
  TRACK 67 AUDIO
    TITLE "0:"
    INDEX 01 01:34:08
  TRACK 68 AUDIO
    TITLE "2:cjc115_5953"
    INDEX 01 01:35:22
  TRACK 69 AUDIO
    TITLE "0:"
    INDEX 01 01:36:56
  TRACK 70 AUDIO
    TITLE "3:cjc115_5954"
    INDEX 01 01:36:68
  TRACK 71 AUDIO
    TITLE "0:"
    INDEX 01 01:38:24
  TRACK 72 AUDIO
    TITLE "4:cjc115_5955"
    INDEX 01 01:38:26
  TRACK 73 AUDIO
    TITLE "0:"
    INDEX 01 01:42:18
